<?xml version="1.0" encoding="utf-8"?>
<!-- Generator: Adobe Illustrator 25.2.1, SVG Export Plug-In . SVG Version: 6.00 Build 0)  -->
<svg version="1.1" id="Camada_1" xmlns="http://www.w3.org/2000/svg" xmlns:xlink="http://www.w3.org/1999/xlink" x="0px" y="0px"
	 viewBox="0 0 571 109" style="enable-background:new 0 0 571 109;" xml:space="preserve">
<g>
	<path d="M184.29,76.97l-9.77,23.1h-7.66l-9.77-23.1h8.38l5.51,13.5l5.64-13.5H184.29z"/>
	<path d="M201.61,96.05h-8.78l-1.55,4.03h-7.92l10.1-23.1h7.66l10.1,23.1h-8.05L201.61,96.05z M199.47,90.43l-2.24-5.81l-2.24,5.81
		H199.47z"/>
	<path d="M234.75,100.07l-0.07-10.53l-5.02,8.45h-3.43l-5.02-8.09v10.17h-7.1v-23.1h6.4l7.53,12.31l7.33-12.31h6.4l0.07,23.1H234.75
		z"/>
	<path d="M252.67,99.05c-1.98-1.03-3.53-2.47-4.65-4.31c-1.12-1.84-1.68-3.91-1.68-6.22c0-2.31,0.56-4.38,1.68-6.22
		c1.12-1.84,2.67-3.27,4.65-4.31s4.21-1.55,6.7-1.55c2.49,0,4.72,0.52,6.7,1.55s3.53,2.47,4.65,4.31c1.12,1.84,1.68,3.91,1.68,6.22
		c0,2.31-0.56,4.38-1.68,6.22c-1.12,1.84-2.67,3.27-4.65,4.31s-4.21,1.55-6.7,1.55C256.89,100.6,254.65,100.08,252.67,99.05z
		 M262,93.59c0.78-0.47,1.4-1.14,1.86-2.01c0.46-0.87,0.69-1.89,0.69-3.05s-0.23-2.18-0.69-3.05c-0.46-0.87-1.08-1.54-1.86-2.01
		c-0.78-0.47-1.66-0.71-2.62-0.71s-1.84,0.24-2.62,0.71c-0.78,0.47-1.4,1.14-1.86,2.01c-0.46,0.87-0.69,1.89-0.69,3.05
		s0.23,2.18,0.69,3.05s1.08,1.54,1.86,2.01c0.78,0.47,1.66,0.71,2.62,0.71S261.22,94.06,262,93.59z"/>
	<path d="M279.92,99.96c-1.82-0.43-3.31-1.01-4.47-1.73l2.51-5.68c1.1,0.64,2.33,1.15,3.7,1.54c1.36,0.38,2.67,0.58,3.93,0.58
		c1.08,0,1.85-0.1,2.31-0.31c0.46-0.21,0.69-0.52,0.69-0.94c0-0.48-0.3-0.85-0.91-1.09c-0.61-0.24-1.6-0.51-2.99-0.79
		c-1.78-0.37-3.27-0.78-4.46-1.2c-1.19-0.43-2.22-1.13-3.1-2.11c-0.88-0.98-1.32-2.3-1.32-3.98c0-1.45,0.41-2.77,1.22-3.96
		s2.03-2.12,3.65-2.81c1.62-0.68,3.58-1.02,5.89-1.02c1.58,0,3.14,0.17,4.67,0.51c1.53,0.34,2.88,0.84,4.04,1.5l-2.34,5.64
		c-2.27-1.14-4.41-1.72-6.44-1.72c-2,0-3,0.48-3,1.45c0,0.46,0.3,0.81,0.89,1.04c0.59,0.23,1.57,0.48,2.94,0.74
		c1.76,0.33,3.25,0.71,4.46,1.14c1.21,0.43,2.26,1.13,3.15,2.1c0.89,0.97,1.34,2.29,1.34,3.96c0,1.45-0.41,2.77-1.22,3.94
		c-0.81,1.18-2.03,2.11-3.65,2.81s-3.58,1.04-5.89,1.04C283.6,100.6,281.74,100.39,279.92,99.96z"/>
	<path d="M305.9,98.8c-1.86-1.02-3.32-2.43-4.37-4.22c-1.06-1.79-1.58-3.81-1.58-6.06c0-2.25,0.53-4.26,1.58-6.06
		c1.06-1.79,2.52-3.2,4.39-4.23c1.87-1.02,3.96-1.53,6.27-1.53c1.8,0,3.45,0.3,4.95,0.91c1.5,0.61,2.77,1.5,3.83,2.69l-2.15,2.08
		c-1.74-1.83-3.91-2.74-6.5-2.74c-1.72,0-3.27,0.38-4.65,1.16s-2.47,1.83-3.25,3.18c-0.78,1.35-1.17,2.87-1.17,4.54
		c0,1.67,0.39,3.18,1.17,4.54c0.78,1.35,1.86,2.42,3.25,3.18c1.39,0.77,2.94,1.16,4.65,1.16c2.57,0,4.74-0.92,6.5-2.77l2.15,2.08
		c-1.06,1.19-2.34,2.09-3.85,2.71c-1.51,0.62-3.16,0.92-4.97,0.92C309.84,100.34,307.76,99.82,305.9,98.8z"/>
	<path d="M342.78,100.07l-4.98-7.1c-0.62,0.04-1.1,0.07-1.45,0.07h-5.71v7.03h-3.3v-23.1h9.01c2.99,0,5.35,0.72,7.06,2.15
		c1.72,1.43,2.57,3.4,2.57,5.91c0,1.78-0.44,3.3-1.32,4.55c-0.88,1.25-2.13,2.17-3.76,2.74l5.48,7.76H342.78z M341.03,88.88
		c1.1-0.9,1.65-2.19,1.65-3.86c0-1.67-0.55-2.95-1.65-3.85c-1.1-0.89-2.7-1.34-4.79-1.34h-5.61v10.4h5.61
		C338.34,90.24,339.93,89.79,341.03,88.88z"/>
	<path d="M352.98,76.97h3.3v23.1h-3.3V76.97z"/>
	<path d="M379.58,94.3H367.3l-2.54,5.78h-3.4l10.46-23.1h3.27l10.5,23.1h-3.47L379.58,94.3z M378.43,91.65l-4.98-11.32l-4.98,11.32
		H378.43z"/>
	<path d="M406.12,100.07l-4.98-7.1c-0.62,0.04-1.1,0.07-1.45,0.07h-5.71v7.03h-3.3v-23.1h9.01c2.99,0,5.35,0.72,7.06,2.15
		c1.72,1.43,2.57,3.4,2.57,5.91c0,1.78-0.44,3.3-1.32,4.55c-0.88,1.25-2.13,2.17-3.76,2.74l5.48,7.76H406.12z M404.37,88.88
		c1.1-0.9,1.65-2.19,1.65-3.86c0-1.67-0.55-2.95-1.65-3.85c-1.1-0.89-2.7-1.34-4.79-1.34h-5.61v10.4h5.61
		C401.67,90.24,403.27,89.79,404.37,88.88z"/>
	<path d="M420.66,90.45c0.3-0.67,0.66-1.24,1.09-1.7c0.43-0.46,1-1.01,1.7-1.65c0.88-0.77,1.53-1.44,1.95-2
		c0.42-0.56,0.63-1.24,0.63-2.03c0-1.08-0.42-1.94-1.25-2.59s-1.99-0.97-3.46-0.97c-2.58,0-4.54,0.87-5.91,2.61l-2.41-1.72
		c0.92-1.19,2.11-2.1,3.55-2.74c1.44-0.64,3.11-0.96,5-0.96c2.4,0,4.3,0.52,5.71,1.57c1.41,1.05,2.11,2.48,2.11,4.31
		c0,0.9-0.15,1.7-0.45,2.39s-0.66,1.27-1.07,1.73c-0.42,0.46-0.98,1.01-1.68,1.65c-0.9,0.81-1.57,1.53-2,2.14
		c-0.43,0.62-0.64,1.38-0.64,2.28h-3.3C420.21,91.9,420.36,91.12,420.66,90.45z M420.36,99.66c-0.41-0.41-0.61-0.91-0.61-1.5
		c0-0.59,0.2-1.09,0.61-1.5s0.92-0.61,1.54-0.61c0.62,0,1.12,0.2,1.52,0.61c0.4,0.41,0.59,0.91,0.59,1.5c0,0.59-0.2,1.09-0.61,1.5
		c-0.41,0.41-0.91,0.61-1.5,0.61C421.28,100.27,420.77,100.07,420.36,99.66z"/>
</g>
<g>
	<path d="M43.55,46.45H32.18l0.23-1.3c3.35-0.37,3.73-0.79,3.49-2.79c-0.23-1.91-0.61-4.24-1.02-6.94H25.1
		c-0.79,1.49-2.38,4.19-3.45,6.29c-1.44,2.75-0.75,3.08,2.84,3.45l-0.28,1.3H13.55l0.33-1.3c2.98-0.37,3.59-0.65,5.87-4.47
		l14.3-24.88l1.54-0.23c2.05,13.7,3.07,19.94,4.01,25.58c0.51,3.26,0.88,3.68,4.29,4.01L43.55,46.45z M32.83,21.43h-0.09
		c-2.38,4.33-4.75,8.57-6.66,12.11h8.52L32.83,21.43z"/>
	<path d="M64.46,57.77l-10.9,0.56l0.23-1.26l0.84-0.14c2.24-0.47,2.66-0.88,3.31-3.68c0.61-2.7,1.91-9.6,2.8-13.88
		c-2.98,4.01-7.22,7.64-10.67,7.64c-1.91,0-3.21-2.1-3.21-5.4c0-4.75,1.96-9.5,5.26-12.39c3.45-2.98,7.22-3.77,9.6-3.77
		c1.16,0,3.35,0.37,5.12,0.88c-0.19,0.75-0.75,2.61-0.93,3.82c-2.28,11.41-3.49,18.08-4.33,22.87c-0.51,2.84-0.37,3.17,1.91,3.4
		l1.21,0.14L64.46,57.77z M50.81,40.4c0,2.38,0.7,3.54,1.77,3.54c1.72,0,4.24-1.77,7.45-6.2c0.84-1.12,1.4-2.38,1.72-3.96
		c0.37-1.77,0.79-3.77,1.12-5.5c-0.79-0.47-2.28-0.75-3.68-0.75C53.1,27.54,50.81,34.99,50.81,40.4z"/>
	<path d="M91.67,42.21c-2.28,3.17-5.31,4.75-6.62,4.75c-1.21,0-1.77-1.12-1.02-4.99c0.37-1.77,0.61-2.79,0.84-3.82
		c-1.91,2.61-4.15,5.03-6.48,6.85c-1.44,1.07-3.12,1.96-4.52,1.96c-1.49,0-3.17-0.98-1.86-6.71c0.7-2.89,1.54-6.33,2.33-9.6
		c0.37-1.4,0.33-1.82-0.05-1.82c-0.51,0-1.86,0.98-3.03,2.14l-0.65-1.17c2.24-2.47,5.26-4.38,6.71-4.38c1.3,0,1.35,1.44,0.51,5.03
		c-0.79,3.07-1.63,6.43-2.28,9.27c-0.7,3.17-0.42,4.05,0.51,4.05c1.63,0,4.38-2.42,6.75-5.45c1.4-1.77,2.7-4.01,3.4-6.75
		c0.28-1.07,0.75-2.98,1.12-4.99c0.93-0.28,2.38-0.79,3.35-1.21h0.51c-1.4,5.4-3.12,12.49-3.82,16.49c-0.14,1.12,0,1.58,0.33,1.58
		c0.42,0,1.54-0.56,3.26-2.38L91.67,42.21z"/>
	<path d="M103.92,42.4c-2.33,3.12-5.26,4.61-6.66,4.61c-1.21,0-1.72-1.21-0.84-4.94c0.75-3.07,2.05-8.06,2.93-11.83
		c0.19-0.88,0.14-1.3-0.14-1.3c-0.47,0-1.86,0.93-3.07,2.1l-0.61-1.21c2.19-2.38,5.36-4.38,6.85-4.38c1.16,0,1.21,1.58,0.37,5.03
		c-0.89,3.35-2,8.06-2.84,11.37c-0.33,1.26-0.33,1.77,0,1.77c0.47,0,1.72-0.65,3.35-2.38L103.92,42.4z M105.23,17.99
		c0,1.44-1.02,2.7-2.47,2.7c-1.16,0-2.05-0.84-2.05-2.1c0-1.21,0.93-2.75,2.61-2.75C104.57,15.84,105.23,16.82,105.23,17.99z"/>
	<path d="M131.27,27.63c-0.93,0.09-3.31,0.28-4.71,0.28c-2.1,9.69-2.75,12.67-2.98,14.07c-0.23,1.44,0.05,1.86,0.47,1.86
		c0.93,0,2.47-1.21,4.19-2.94l0.61,1.17c-1.49,2.28-5.12,4.94-7.13,4.94c-1.63,0-2.42-1.26-1.21-6.75l2.7-12.34h-3.73v-0.42
		l1.35-1.49h2.79l1.07-4.98c0.75-0.42,2.7-1.68,3.68-2.56l0.42,0.23c-0.56,1.86-1.3,4.89-1.82,7.31h5.17L131.27,27.63z"/>
	<path d="M138.21,47.01c-2.24,0-5.26-1.3-5.26-6.94c0-4.33,1.86-9.5,5.54-12.21c2.1-1.49,4.29-2.42,6.29-2.42
		c2.66,0,4.15,1.68,4.15,3.73c0,4.66-6.85,6.85-12.07,7.78c-0.05,0.56-0.09,1.49-0.09,1.96c0,2.7,0.75,5.31,3.63,5.31
		c2.1,0,4.61-1.3,6.89-3.68l0.7,1.16C144.22,46.08,140.54,47.01,138.21,47.01z M137.04,35.41c6.75-1.21,8.34-3.35,8.39-5.5
		c0-1.58-0.93-2.47-2.42-2.47C141.61,27.44,138.4,28.47,137.04,35.41z"/>
	<path d="M181.67,25.44c1.49,0,2.98,0.7,1.54,6.66c-0.65,2.89-1.63,6.85-2.33,9.78c-0.28,1.21-0.28,1.72,0.05,1.72
		c0.42,0,1.77-0.7,3.49-2.52l0.7,1.17c-2.38,3.17-5.5,4.75-6.85,4.75c-1.16,0-1.82-1.12-0.84-5.03c0.79-3.21,1.72-7.13,2.47-10.25
		c0.61-2.56,0.23-3.26-0.56-3.26c-1.49,0-5.4,2.61-8.57,7.73c-0.84,1.3-1.26,2.33-1.63,3.87c-0.42,1.82-0.98,4.15-1.35,6.06
		c-1.21,0.14-2.42,0.56-3.35,0.88l-0.33-0.33c1.16-4.75,2.33-9.22,3.31-13.98c0.65-2.89,0.56-4.24-0.51-4.24
		c-1.54,0-5.26,2.79-8.34,7.73c-0.79,1.26-1.21,2.47-1.58,3.91c-0.42,1.82-0.98,4.1-1.35,6.01c-1.21,0.19-2.47,0.56-3.35,0.88
		L152,46.68c1.21-4.75,2.7-10.81,3.82-15.89c0.33-1.54,0.19-1.91-0.19-1.91c-0.56,0-1.82,0.98-2.98,2.1l-0.61-1.21
		c2.14-2.56,4.57-4.33,6.1-4.33c1.3,0,1.68,1.86,0.84,5.45l-0.7,3.17c4.29-5.87,8.62-8.62,10.95-8.62c1.63,0,2.75,1.26,1.44,7.17
		l-0.33,1.58C174.5,28.38,179.25,25.44,181.67,25.44z"/>
	<path d="M214.33,41.89c-2.84,3.26-6.2,5.12-9.41,5.12c-3.12,0-5.26-2.47-5.26-6.89c0-3.87,1.58-8.29,4.75-11.18
		c2.19-2.05,5.22-3.49,7.41-3.49c2.05,0,3.59,1.07,3.63,2.14c0.05,0.89-0.65,2.1-1.58,2.42c-0.42,0.19-0.7,0.14-1.07-0.28
		c-1.07-1.3-2.1-2-3.54-2c-3.54,0-5.68,5.87-5.68,11.37c0,3.4,1.3,5.12,3.45,5.12c2.47,0,5.22-2.1,6.62-3.54L214.33,41.89z"/>
	<path d="M237.76,42.26c-2.28,3.07-5.17,4.75-6.48,4.75c-1.3,0-1.86-1.07-1.02-5.31l0.65-3.21c-1.72,2.84-4.19,5.17-5.59,6.29
		c-1.49,1.21-3.26,2.24-4.8,2.24c-1.63,0-2.98-2-2.98-5.78c0-4.38,2-9.22,5.17-12.11c2.42-2.24,5.78-3.68,8.9-3.68
		c2.38,0,4.52,0.7,5.4,0.79c-0.84,2.93-2.47,10.11-3.35,15.37c-0.23,1.3-0.14,1.82,0.23,1.82c0.56,0,1.54-0.61,3.21-2.33
		L237.76,42.26z M229.33,38.39c1.02-1.3,2.24-3.63,2.7-5.59c0.47-1.77,0.89-3.45,1.02-4.57c-0.65-0.33-2.19-0.75-3.54-0.75
		c-5.5,0-8.06,7.08-8.06,13.14c0,1.86,0.51,3.08,1.44,3.08C224.35,43.7,226.4,42.26,229.33,38.39z"/>
	<path d="M245.64,26c0.7-3.49,1.77-6.89,4.01-9.36c2.14-2.42,4.89-3.68,6.75-3.68c1.63,0,2.98,0.93,2.98,1.91
		c0,0.7-0.79,1.86-1.4,2.33c-0.37,0.28-0.75,0.33-1.07,0c-1.07-1.16-2.24-1.77-3.21-1.77c-1.77,0-3.03,1.96-4.47,10.57h5.26
		l-0.89,1.68c-0.79,0.05-3.4,0.23-4.66,0.23c-0.89,5.12-1.4,8.11-2.42,13.6c-1.58,8.25-3.31,11.46-5.87,14.12
		c-2.05,2.24-4.29,3.07-5.4,3.07c-1.72,0-2.98-0.88-2.98-2.05c0-0.79,0.65-2,1.44-2.56c0.33-0.23,0.7-0.23,0.89,0
		c0.93,0.79,1.86,1.58,3.03,1.58c2.66,0,3.45-3.26,5.03-12.53c1.12-6.34,1.86-10.62,2.61-15.23h-3.96l0.05-0.56l1.3-1.35H245.64z"/>
	<path d="M259.47,47.01c-2.24,0-5.26-1.3-5.26-6.94c0-4.33,1.86-9.5,5.54-12.21c2.1-1.49,4.29-2.42,6.29-2.42
		c2.66,0,4.15,1.68,4.15,3.73c0,4.66-6.85,6.85-12.07,7.78c-0.05,0.56-0.09,1.49-0.09,1.96c0,2.7,0.75,5.31,3.63,5.31
		c2.1,0,4.61-1.3,6.89-3.68l0.7,1.16C265.48,46.08,261.8,47.01,259.47,47.01z M258.31,35.41c6.75-1.21,8.34-3.35,8.39-5.5
		c0-1.58-0.93-2.47-2.42-2.47C262.87,27.44,259.66,28.47,258.31,35.41z M263.57,21.81l6.29-8.11c0.98-0.09,3.59,0.33,4.24,0.61
		l0.05,0.47l-9.5,7.78L263.57,21.81z"/>
	<path d="M289.33,47.01c-2.24,0-5.26-1.3-5.26-6.94c0-4.33,1.86-9.5,5.54-12.21c2.1-1.49,4.29-2.42,6.29-2.42
		c2.66,0,4.15,1.68,4.15,3.73c0,4.66-6.85,6.85-12.07,7.78c-0.05,0.56-0.09,1.49-0.09,1.96c0,2.7,0.75,5.31,3.63,5.31
		c2.1,0,4.61-1.3,6.89-3.68l0.7,1.16C295.34,46.08,291.66,47.01,289.33,47.01z M288.17,35.41c6.75-1.21,8.34-3.35,8.39-5.5
		c0-1.58-0.93-2.47-2.42-2.47C292.73,27.44,289.52,28.47,288.17,35.41z"/>
	<path d="M321.99,26c1.3-0.37,2.98-0.56,4.24-0.56c4.89,0,6.75,2.28,6.75,6.38c0,3.17-1.3,6.8-4.01,9.78
		c-2.28,2.61-5.64,4.66-8.66,5.4c-0.75,0-1.82-0.09-2.7-0.47l-1.3,6.57c-0.51,2.61-0.33,3.07,1.96,3.26l1.3,0.14l-0.19,1.21
		l-10.95,0.56l0.23-1.21c3.17-0.56,3.49-0.93,4.1-3.77c1.77-8.15,3.54-16.4,5.22-24.41c-1.44,0.51-2.66,1.12-3.77,1.72l-0.33-1.3
		c1.3-0.88,2.93-1.68,4.52-2.33l0.51-2.14c0.84-1.03,2.38-2.1,3.45-2.7l0.42,0.28L321.99,26z M318.36,43.33
		c0.56,0.75,1.68,1.58,2.84,1.54c3.31,0,7.87-6.24,7.87-12.21c0-4.1-2.19-5.17-4.94-5.17c-0.79,0-1.63,0.14-2.56,0.37
		C320.64,32.48,319.34,38.67,318.36,43.33z"/>
	<path d="M356.51,42.26c-2.28,3.07-5.17,4.75-6.48,4.75c-1.3,0-1.86-1.07-1.02-5.31l0.65-3.21c-1.72,2.84-4.19,5.17-5.59,6.29
		c-1.49,1.21-3.26,2.24-4.8,2.24c-1.63,0-2.98-2-2.98-5.78c0-4.38,2-9.22,5.17-12.11c2.42-2.24,5.78-3.68,8.9-3.68
		c2.38,0,4.52,0.7,5.4,0.79c-0.84,2.93-2.47,10.11-3.35,15.37c-0.23,1.3-0.14,1.82,0.23,1.82c0.56,0,1.54-0.61,3.21-2.33
		L356.51,42.26z M348.08,38.39c1.02-1.3,2.24-3.63,2.7-5.59c0.47-1.77,0.88-3.45,1.02-4.57c-0.65-0.33-2.19-0.75-3.54-0.75
		c-5.5,0-8.06,7.08-8.06,13.14c0,1.86,0.51,3.08,1.44,3.08C343.1,43.7,345.15,42.26,348.08,38.39z"/>
	<path d="M368.16,26c1.3-0.37,2.98-0.56,4.24-0.56c4.89,0,6.75,2.28,6.75,6.38c0,3.17-1.3,6.8-4.01,9.78
		c-2.28,2.61-5.64,4.66-8.66,5.4c-0.75,0-1.82-0.09-2.7-0.47l-1.3,6.57c-0.51,2.61-0.33,3.07,1.96,3.26l1.3,0.14l-0.19,1.21
		l-10.95,0.56l0.23-1.21c3.17-0.56,3.49-0.93,4.1-3.77c1.77-8.15,3.54-16.4,5.22-24.41c-1.44,0.51-2.66,1.12-3.77,1.72l-0.33-1.3
		c1.3-0.88,2.93-1.68,4.52-2.33l0.51-2.14c0.84-1.03,2.38-2.1,3.45-2.7l0.42,0.28L368.16,26z M364.52,43.33
		c0.56,0.75,1.68,1.58,2.84,1.54c3.31,0,7.87-6.24,7.87-12.21c0-4.1-2.19-5.17-4.94-5.17c-0.79,0-1.63,0.14-2.56,0.37
		C366.81,32.48,365.5,38.67,364.52,43.33z"/>
	<path d="M400.91,32.71c0,4.84-2.42,9.83-6.52,12.44c-1.68,1.03-3.63,1.86-5.73,1.86c-4.42,0-6.24-3.54-6.24-7.27
		c0-6.43,3.45-11.04,7.5-13.04c1.49-0.75,3.4-1.26,4.8-1.26C398.63,25.44,400.91,28,400.91,32.71z M386.37,39.23
		c0,3.49,1.3,5.82,3.87,5.82c4.43,0,6.75-7.13,6.75-12.16c0-3.87-1.68-5.5-3.91-5.5C388.42,27.4,386.37,34.43,386.37,39.23z"/>
	<path d="M429.98,41.89c-2.84,3.26-6.2,5.12-9.41,5.12c-3.12,0-5.26-2.47-5.26-6.89c0-3.87,1.58-8.29,4.75-11.18
		c2.19-2.05,5.22-3.49,7.41-3.49c2.05,0,3.59,1.07,3.63,2.14c0.05,0.89-0.65,2.1-1.58,2.42c-0.42,0.19-0.7,0.14-1.07-0.28
		c-1.07-1.3-2.1-2-3.54-2c-3.54,0-5.68,5.87-5.68,11.37c0,3.4,1.3,5.12,3.45,5.12c2.47,0,5.22-2.1,6.62-3.54L429.98,41.89z"/>
	<path d="M433.84,29.87c2.33-2.75,4.8-4.43,6.15-4.43c1.58,0,1.44,2.47,0.56,6.48l-0.28,1.26c2.52-4.29,5.73-7.73,7.59-7.73
		c1.12,0,2.14,0.93,2.14,2.1c0,1.02-0.98,2.42-1.82,2.98c-0.42,0.28-0.79,0.28-1.02,0c-0.51-0.56-0.98-1.35-1.54-1.35
		c-1.07,0-3.36,3.31-4.43,5.22c-1.63,2.93-2.47,7.22-3.4,11.69c-1.03,0.19-2.47,0.61-3.4,0.93l-0.33-0.33
		c1.12-4.29,2.75-11.37,3.4-14.77c0.51-2.61,0.37-3.03,0.04-3.03c-0.46,0-1.63,0.75-3.03,2.14L433.84,29.87z"/>
	<path d="M460.96,42.4c-2.33,3.12-5.26,4.61-6.66,4.61c-1.21,0-1.72-1.21-0.84-4.94c0.75-3.07,2.05-8.06,2.94-11.83
		c0.19-0.88,0.14-1.3-0.14-1.3c-0.46,0-1.86,0.93-3.07,2.1l-0.61-1.21c2.19-2.38,5.36-4.38,6.85-4.38c1.16,0,1.21,1.58,0.37,5.03
		c-0.88,3.35-2,8.06-2.84,11.37c-0.33,1.26-0.33,1.77,0,1.77c0.46,0,1.72-0.65,3.35-2.38L460.96,42.4z M462.26,17.99
		c0,1.44-1.03,2.7-2.47,2.7c-1.17,0-2.05-0.84-2.05-2.1c0-1.21,0.93-2.75,2.61-2.75C461.61,15.84,462.26,16.82,462.26,17.99z"/>
	<path d="M484.95,42.26c-2.28,3.07-5.17,4.75-6.48,4.75c-1.3,0-1.86-1.07-1.02-5.31l0.65-3.21c-1.72,2.84-4.19,5.17-5.59,6.29
		c-1.49,1.21-3.26,2.24-4.8,2.24c-1.63,0-2.98-2-2.98-5.78c0-4.38,2-9.22,5.17-12.11c2.42-2.24,5.78-3.68,8.9-3.68
		c2.38,0,4.52,0.7,5.4,0.79c-0.84,2.93-2.47,10.11-3.35,15.37c-0.23,1.3-0.14,1.82,0.23,1.82c0.56,0,1.54-0.61,3.21-2.33
		L484.95,42.26z M476.52,38.39c1.02-1.3,2.24-3.63,2.7-5.59c0.47-1.77,0.88-3.45,1.03-4.57c-0.65-0.33-2.19-0.75-3.54-0.75
		c-5.5,0-8.06,7.08-8.06,13.14c0,1.86,0.51,3.08,1.44,3.08C471.53,43.7,473.58,42.26,476.52,38.39z"/>
	<path d="M500.37,27.63c-0.93,0.09-3.31,0.28-4.71,0.28c-2.1,9.69-2.75,12.67-2.98,14.07c-0.23,1.44,0.05,1.86,0.46,1.86
		c0.93,0,2.47-1.21,4.19-2.94l0.61,1.17c-1.49,2.28-5.12,4.94-7.13,4.94c-1.63,0-2.42-1.26-1.21-6.75l2.7-12.34h-3.73v-0.42
		l1.35-1.49h2.8l1.07-4.98c0.75-0.42,2.7-1.68,3.68-2.56l0.42,0.23c-0.56,1.86-1.3,4.89-1.82,7.31h5.17L500.37,27.63z"/>
	<path d="M510.62,42.4c-2.33,3.12-5.27,4.61-6.66,4.61c-1.21,0-1.72-1.21-0.84-4.94c0.75-3.07,2.05-8.06,2.94-11.83
		c0.19-0.88,0.14-1.3-0.14-1.3c-0.47,0-1.87,0.93-3.08,2.1l-0.61-1.21c2.19-2.38,5.36-4.38,6.85-4.38c1.17,0,1.21,1.58,0.37,5.03
		c-0.88,3.35-2,8.06-2.84,11.37c-0.33,1.26-0.33,1.77,0,1.77c0.47,0,1.72-0.65,3.36-2.38L510.62,42.4z M511.92,17.99
		c0,1.44-1.02,2.7-2.47,2.7c-1.16,0-2.05-0.84-2.05-2.1c0-1.21,0.93-2.75,2.61-2.75C511.27,15.84,511.92,16.82,511.92,17.99z"/>
	<path d="M513.46,29.96c1.77-2.47,4.19-4.52,5.64-4.52c1.21,0,1.82,1.44,2,5.22c0.28,4.57,0.33,9.08,0.42,11.93
		c2.1-2.56,7.5-8.76,7.5-12.07c0-0.79-0.42-1.72-0.75-2.24c-0.19-0.33-0.28-0.61-0.09-0.98c0.28-0.79,1.63-1.86,2.7-1.86
		c1.12,0,1.72,1.07,1.77,2.66c0,1.44-0.65,3.68-2.79,6.71c-2.61,3.73-7.27,8.99-10.02,12.21h-1.35c-0.19-4.75-0.42-11.23-0.7-15.23
		c-0.19-2.42-0.47-2.89-0.93-2.89c-0.33,0-1.16,0.42-2.66,2.19L513.46,29.96z"/>
	<path d="M553.8,32.71c0,4.84-2.42,9.83-6.52,12.44c-1.68,1.03-3.63,1.86-5.73,1.86c-4.42,0-6.24-3.54-6.24-7.27
		c0-6.43,3.45-11.04,7.5-13.04c1.49-0.75,3.4-1.26,4.8-1.26C551.52,25.44,553.8,28,553.8,32.71z M539.27,39.23
		c0,3.49,1.3,5.82,3.87,5.82c4.43,0,6.76-7.13,6.76-12.16c0-3.87-1.68-5.5-3.91-5.5C541.32,27.4,539.27,34.43,539.27,39.23z"/>
	<path d="M554.46,50.41c2-0.75,4.71-2.1,4.71-4.43c-0.05-1.3-1.12-1.91-2.1-2.28c-0.37-0.14-0.61-0.37-0.61-0.79
		c0.05-1.49,1.3-2.47,2.7-2.47c1.72,0,3.07,1.82,3.07,3.87c0,4.1-3.63,6.57-7.36,7.55L554.46,50.41z"/>
</g>
</svg>
