<?xml version="1.0" encoding="utf-8"?>
<!-- Generator: Adobe Illustrator 25.2.1, SVG Export Plug-In . SVG Version: 6.00 Build 0)  -->
<svg version="1.1" id="Camada_1" xmlns="http://www.w3.org/2000/svg" xmlns:xlink="http://www.w3.org/1999/xlink" x="0px" y="0px"
	 viewBox="0 0 638 215" style="enable-background:new 0 0 638 215;" xml:space="preserve">
<g>
	<path d="M49.18,90.85c-3.55-0.78-6.42-1.8-8.61-3.05l4.85-11.66c1.98,1.2,4.33,2.14,7.04,2.82c2.71,0.68,5.35,1.02,7.9,1.02
		c2.03,0,3.46-0.17,4.26-0.51c0.81-0.34,1.21-0.85,1.21-1.53c0-0.68-0.51-1.15-1.53-1.41c-1.02-0.26-2.67-0.52-4.97-0.78
		c-3.5-0.42-6.47-0.95-8.92-1.6c-2.45-0.65-4.6-1.92-6.46-3.8c-1.85-1.88-2.78-4.56-2.78-8.06c0-2.76,0.83-5.24,2.5-7.43
		c1.67-2.19,4.16-3.94,7.47-5.24c3.31-1.3,7.29-1.96,11.93-1.96c3.23,0,6.4,0.3,9.51,0.9c3.1,0.6,5.75,1.47,7.94,2.62l-4.85,11.66
		c-3.76-2.09-7.88-3.13-12.36-3.13c-3.86,0-5.79,0.68-5.79,2.03c0,0.68,0.52,1.16,1.56,1.45c1.04,0.29,2.69,0.56,4.93,0.82
		c3.49,0.42,6.46,0.97,8.88,1.64c2.43,0.68,4.56,1.96,6.42,3.83c1.85,1.88,2.78,4.57,2.78,8.06c0,2.66-0.84,5.09-2.5,7.28
		c-1.67,2.19-4.17,3.94-7.51,5.24c-3.34,1.3-7.38,1.96-12.13,1.96C56.33,92.02,52.73,91.63,49.18,90.85z"/>
	<path d="M134.24,48.44v42.8h-16.82v-4.07c-1.56,1.62-3.39,2.83-5.48,3.64c-2.09,0.81-4.3,1.21-6.65,1.21
		c-5.43,0-9.78-1.66-13.07-4.97c-3.29-3.31-4.93-8.31-4.93-14.98V48.44h17.68v20.58c0,2.92,0.47,5.01,1.41,6.26
		c0.94,1.25,2.32,1.88,4.15,1.88c1.72,0,3.16-0.69,4.3-2.07c1.15-1.38,1.72-3.56,1.72-6.53V48.44H134.24z"/>
	<path d="M178.45,52.7c3.96,3.36,5.95,8.54,5.95,15.53v23.01h-16.43v-5.63c-2.03,4.28-6.08,6.42-12.13,6.42
		c-3.39,0-6.27-0.59-8.65-1.76c-2.37-1.17-4.17-2.76-5.4-4.77c-1.23-2.01-1.84-4.26-1.84-6.77c0-4.23,1.62-7.43,4.85-9.62
		c3.23-2.19,8.14-3.29,14.71-3.29h7.12c-0.57-3.34-3.26-5.01-8.06-5.01c-1.93,0-3.89,0.3-5.87,0.9c-1.98,0.6-3.68,1.42-5.09,2.46
		l-5.63-11.66c2.45-1.51,5.41-2.7,8.88-3.56c3.47-0.86,6.93-1.29,10.37-1.29C168.75,47.66,174.48,49.34,178.45,52.7z M164.52,80.36
		c0.99-0.68,1.72-1.69,2.19-3.05v-2.97h-4.38c-3.6,0-5.4,1.2-5.4,3.6c0,0.99,0.38,1.81,1.13,2.46c0.76,0.65,1.79,0.98,3.09,0.98
		C162.41,81.38,163.53,81.04,164.52,80.36z"/>
	<path d="M216.67,42.45c-1.96-1.69-2.93-3.85-2.93-6.46c0-2.61,0.98-4.76,2.93-6.46c1.96-1.69,4.52-2.54,7.71-2.54
		c3.23,0,5.82,0.81,7.75,2.43c1.93,1.62,2.9,3.7,2.9,6.26c0,2.71-0.97,4.94-2.9,6.69c-1.93,1.75-4.51,2.62-7.75,2.62
		C221.2,45,218.63,44.15,216.67,42.45z M215.54,48.44h17.68v42.8h-17.68V48.44z"/>
	<path d="M288.39,33.18v58.06h-16.82v-3.52c-2.56,2.87-6.47,4.3-11.74,4.3c-3.76,0-7.21-0.9-10.37-2.7
		c-3.16-1.8-5.66-4.39-7.51-7.79c-1.85-3.39-2.78-7.3-2.78-11.74c0-4.43,0.93-8.33,2.78-11.7c1.85-3.36,4.35-5.95,7.51-7.75
		c3.16-1.8,6.61-2.7,10.37-2.7c4.75,0,8.37,1.23,10.88,3.68V33.18H288.39z M269.06,76.02c1.3-1.49,1.96-3.56,1.96-6.22
		c0-2.66-0.65-4.72-1.96-6.18c-1.3-1.46-2.97-2.19-5.01-2.19c-2.03,0-3.7,0.73-5.01,2.19c-1.3,1.46-1.96,3.52-1.96,6.18
		c0,2.66,0.65,4.73,1.96,6.22c1.3,1.49,2.97,2.23,5.01,2.23C266.09,78.25,267.76,77.51,269.06,76.02z"/>
	<path d="M341.52,73.95h-29.74c0.63,1.62,1.67,2.86,3.13,3.72c1.46,0.86,3.29,1.29,5.48,1.29c1.88,0,3.46-0.23,4.73-0.7
		c1.28-0.47,2.67-1.28,4.19-2.43l9.23,9.31c-4.17,4.59-10.41,6.89-18.7,6.89c-5.16,0-9.7-0.95-13.62-2.86
		c-3.91-1.9-6.94-4.55-9.08-7.94c-2.14-3.39-3.21-7.2-3.21-11.42c0-4.28,1.06-8.1,3.17-11.46s5.01-5.99,8.69-7.86
		s7.81-2.82,12.4-2.82c4.33,0,8.28,0.86,11.85,2.58c3.57,1.72,6.42,4.25,8.53,7.59c2.11,3.34,3.17,7.33,3.17,11.97
		C341.75,70.06,341.68,71.44,341.52,73.95z M313.82,61.19c-1.2,0.99-1.98,2.4-2.35,4.23h13.77c-0.37-1.77-1.15-3.17-2.35-4.19
		c-1.2-1.02-2.71-1.53-4.54-1.53C316.53,59.71,315.02,60.2,313.82,61.19z"/>
	<path d="M348.45,42.45c-1.96-1.69-2.93-3.85-2.93-6.46c0-2.61,0.98-4.76,2.93-6.46c1.96-1.69,4.52-2.54,7.71-2.54
		c3.23,0,5.82,0.81,7.75,2.43c1.93,1.62,2.9,3.7,2.9,6.26c0,2.71-0.97,4.94-2.9,6.69c-1.93,1.75-4.51,2.62-7.75,2.62
		C352.97,45,350.4,44.15,348.45,42.45z M347.31,48.44H365v42.8h-17.68V48.44z"/>
	<path d="M409.21,52.7c3.96,3.36,5.95,8.54,5.95,15.53v23.01h-16.43v-5.63c-2.03,4.28-6.08,6.42-12.13,6.42
		c-3.39,0-6.27-0.59-8.65-1.76c-2.37-1.17-4.17-2.76-5.4-4.77c-1.23-2.01-1.84-4.26-1.84-6.77c0-4.23,1.62-7.43,4.85-9.62
		c3.23-2.19,8.14-3.29,14.71-3.29h7.12c-0.57-3.34-3.26-5.01-8.06-5.01c-1.93,0-3.89,0.3-5.87,0.9c-1.98,0.6-3.68,1.42-5.09,2.46
		l-5.63-11.66c2.45-1.51,5.41-2.7,8.88-3.56c3.47-0.86,6.93-1.29,10.37-1.29C399.5,47.66,405.24,49.34,409.21,52.7z M395.28,80.36
		c0.99-0.68,1.72-1.69,2.19-3.05v-2.97h-4.38c-3.6,0-5.4,1.2-5.4,3.6c0,0.99,0.38,1.81,1.13,2.46c0.76,0.65,1.79,0.98,3.09,0.98
		C393.16,81.38,394.29,81.04,395.28,80.36z"/>
	<path d="M438.24,74.57c1.93,1.83,2.9,4.25,2.9,7.28c0,1.36-0.18,2.71-0.55,4.07c-0.37,1.36-1.2,3.42-2.5,6.18l-5.48,11.66h-10.96
		l3.91-13.22c-1.62-0.78-2.87-1.92-3.76-3.4c-0.89-1.49-1.33-3.25-1.33-5.28c0-3.02,0.96-5.45,2.9-7.28
		c1.93-1.83,4.41-2.74,7.43-2.74C433.83,71.84,436.31,72.75,438.24,74.57z"/>
	<path d="M85.68,146.33c3.21,3.18,4.81,7.98,4.81,14.4v24.41H72.81v-21.36c0-4.9-1.75-7.36-5.24-7.36c-1.98,0-3.59,0.69-4.81,2.07
		c-1.23,1.38-1.84,3.56-1.84,6.53v20.11H43.23v-42.8h16.82v4.23c1.67-1.67,3.6-2.92,5.79-3.76c2.19-0.83,4.56-1.25,7.12-1.25
		C78.24,141.56,82.48,143.15,85.68,146.33z"/>
	<path d="M108.77,183.07c-3.78-1.9-6.74-4.54-8.88-7.9c-2.14-3.37-3.21-7.19-3.21-11.46c0-4.28,1.07-8.1,3.21-11.46
		c2.14-3.36,5.1-5.99,8.88-7.86c3.78-1.88,8.05-2.82,12.79-2.82c4.8,0,9.09,0.94,12.87,2.82c3.78,1.88,6.73,4.5,8.84,7.86
		c2.11,3.36,3.17,7.19,3.17,11.46c0,4.28-1.06,8.1-3.17,11.46c-2.11,3.36-5.06,6-8.84,7.9c-3.78,1.9-8.07,2.86-12.87,2.86
		C116.81,185.92,112.55,184.97,108.77,183.07z M126.57,169.92c1.3-1.49,1.96-3.56,1.96-6.22c0-2.66-0.65-4.72-1.96-6.18
		c-1.3-1.46-2.97-2.19-5.01-2.19s-3.7,0.73-5.01,2.19c-1.3,1.46-1.96,3.52-1.96,6.18c0,2.66,0.65,4.73,1.96,6.22
		c1.3,1.49,2.97,2.23,5.01,2.23S125.27,171.41,126.57,169.92z"/>
	<path d="M157.95,184.75c-3.55-0.78-6.42-1.8-8.61-3.05l4.85-11.66c1.98,1.2,4.33,2.14,7.04,2.82c2.71,0.68,5.35,1.02,7.9,1.02
		c2.03,0,3.46-0.17,4.26-0.51c0.81-0.34,1.21-0.85,1.21-1.53c0-0.68-0.51-1.15-1.53-1.41c-1.02-0.26-2.67-0.52-4.97-0.78
		c-3.5-0.42-6.47-0.95-8.92-1.6c-2.45-0.65-4.6-1.92-6.46-3.79c-1.85-1.88-2.78-4.56-2.78-8.06c0-2.76,0.83-5.24,2.5-7.43
		c1.67-2.19,4.16-3.94,7.47-5.24c3.31-1.3,7.29-1.96,11.93-1.96c3.23,0,6.4,0.3,9.51,0.9c3.1,0.6,5.75,1.47,7.94,2.62l-4.85,11.66
		c-3.76-2.09-7.88-3.13-12.36-3.13c-3.86,0-5.79,0.68-5.79,2.04c0,0.68,0.52,1.16,1.56,1.45c1.04,0.29,2.69,0.56,4.93,0.82
		c3.49,0.42,6.46,0.97,8.88,1.64c2.43,0.68,4.56,1.96,6.42,3.83c1.85,1.88,2.78,4.57,2.78,8.06c0,2.66-0.84,5.09-2.5,7.28
		c-1.67,2.19-4.17,3.94-7.51,5.24c-3.34,1.3-7.38,1.96-12.13,1.96C165.09,185.92,161.49,185.53,157.95,184.75z"/>
	<path d="M202.16,184.75c-3.55-0.78-6.42-1.8-8.61-3.05l4.85-11.66c1.98,1.2,4.33,2.14,7.04,2.82c2.71,0.68,5.35,1.02,7.9,1.02
		c2.03,0,3.46-0.17,4.26-0.51c0.81-0.34,1.21-0.85,1.21-1.53c0-0.68-0.51-1.15-1.53-1.41c-1.02-0.26-2.67-0.52-4.97-0.78
		c-3.5-0.42-6.47-0.95-8.92-1.6c-2.45-0.65-4.6-1.92-6.46-3.79c-1.85-1.88-2.78-4.56-2.78-8.06c0-2.76,0.83-5.24,2.5-7.43
		c1.67-2.19,4.16-3.94,7.47-5.24c3.31-1.3,7.29-1.96,11.93-1.96c3.23,0,6.4,0.3,9.51,0.9c3.1,0.6,5.75,1.47,7.94,2.62l-4.85,11.66
		c-3.76-2.09-7.88-3.13-12.36-3.13c-3.86,0-5.79,0.68-5.79,2.04c0,0.68,0.52,1.16,1.56,1.45c1.04,0.29,2.69,0.56,4.93,0.82
		c3.49,0.42,6.46,0.97,8.88,1.64c2.43,0.68,4.56,1.96,6.42,3.83c1.85,1.88,2.78,4.57,2.78,8.06c0,2.66-0.84,5.09-2.5,7.28
		c-1.67,2.19-4.17,3.94-7.51,5.24c-3.34,1.3-7.38,1.96-12.13,1.96C209.3,185.92,205.71,185.53,202.16,184.75z"/>
	<path d="M276.81,146.6c3.96,3.36,5.95,8.54,5.95,15.53v23.01h-16.43v-5.63c-2.03,4.28-6.08,6.42-12.13,6.42
		c-3.39,0-6.27-0.59-8.65-1.76c-2.37-1.17-4.17-2.76-5.4-4.77c-1.23-2.01-1.84-4.26-1.84-6.77c0-4.23,1.62-7.43,4.85-9.62
		c3.23-2.19,8.14-3.29,14.71-3.29h7.12c-0.57-3.34-3.26-5.01-8.06-5.01c-1.93,0-3.89,0.3-5.87,0.9c-1.98,0.6-3.68,1.42-5.09,2.47
		l-5.63-11.66c2.45-1.51,5.41-2.7,8.88-3.56c3.47-0.86,6.93-1.29,10.37-1.29C267.1,141.56,272.84,143.24,276.81,146.6z
		 M262.88,174.27c0.99-0.68,1.72-1.69,2.19-3.05v-2.97h-4.38c-3.6,0-5.4,1.2-5.4,3.6c0,0.99,0.38,1.81,1.13,2.46
		c0.76,0.65,1.79,0.98,3.09,0.98C260.77,175.28,261.89,174.94,262.88,174.27z"/>
	<path d="M352.83,144.26c3.16,1.8,5.66,4.4,7.51,7.79c1.85,3.39,2.78,7.3,2.78,11.74c0,4.43-0.93,8.33-2.78,11.7
		c-1.85,3.37-4.36,5.95-7.51,7.75c-3.16,1.8-6.61,2.7-10.37,2.7c-4.75,0-8.37-1.22-10.88-3.68v18.08H313.9v-57.98h16.82v3.52
		c2.56-2.87,6.47-4.3,11.74-4.3C346.21,141.56,349.67,142.46,352.83,144.26z M343.24,169.96c1.3-1.46,1.96-3.52,1.96-6.18
		s-0.65-4.73-1.96-6.22c-1.3-1.49-2.97-2.23-5.01-2.23s-3.7,0.74-5.01,2.23c-1.3,1.49-1.96,3.56-1.96,6.22s0.65,4.72,1.96,6.18
		c1.3,1.46,2.97,2.19,5.01,2.19S341.94,171.42,343.24,169.96z"/>
	<path d="M403.96,146.6c3.96,3.36,5.95,8.54,5.95,15.53v23.01h-16.43v-5.63c-2.03,4.28-6.08,6.42-12.13,6.42
		c-3.39,0-6.27-0.59-8.65-1.76c-2.37-1.17-4.17-2.76-5.4-4.77c-1.23-2.01-1.84-4.26-1.84-6.77c0-4.23,1.62-7.43,4.85-9.62
		c3.23-2.19,8.14-3.29,14.71-3.29h7.12c-0.57-3.34-3.26-5.01-8.06-5.01c-1.93,0-3.89,0.3-5.87,0.9c-1.98,0.6-3.68,1.42-5.09,2.47
		l-5.63-11.66c2.45-1.51,5.41-2.7,8.88-3.56c3.47-0.86,6.93-1.29,10.37-1.29C394.26,141.56,400,143.24,403.96,146.6z M390.04,174.27
		c0.99-0.68,1.72-1.69,2.19-3.05v-2.97h-4.38c-3.6,0-5.4,1.2-5.4,3.6c0,0.99,0.38,1.81,1.13,2.46c0.76,0.65,1.79,0.98,3.09,0.98
		C387.92,175.28,389.04,174.94,390.04,174.27z"/>
	<path d="M418.71,136.35c-1.96-1.69-2.93-3.85-2.93-6.46c0-2.61,0.98-4.76,2.93-6.46c1.96-1.69,4.53-2.54,7.71-2.54
		c3.23,0,5.82,0.81,7.75,2.43c1.93,1.62,2.9,3.7,2.9,6.26c0,2.71-0.97,4.94-2.9,6.69c-1.93,1.75-4.51,2.62-7.75,2.62
		C423.24,138.9,420.67,138.05,418.71,136.35z M417.58,142.34h17.68v42.8h-17.68V142.34z"/>
	<path d="M470.08,185.14l-5.87-9.16l-6.57,9.16h-19.17l16.2-21.21l-15.73-21.6h19.95l6.1,9.08l6.42-9.08h18.54l-15.73,20.81
		l16.12,21.99H470.08z"/>
	<path d="M529.16,146.6c3.96,3.36,5.95,8.54,5.95,15.53v23.01h-16.43v-5.63c-2.04,4.28-6.08,6.42-12.13,6.42
		c-3.39,0-6.27-0.59-8.65-1.76c-2.38-1.17-4.17-2.76-5.4-4.77c-1.23-2.01-1.84-4.26-1.84-6.77c0-4.23,1.62-7.43,4.85-9.62
		c3.23-2.19,8.14-3.29,14.71-3.29h7.12c-0.58-3.34-3.26-5.01-8.06-5.01c-1.93,0-3.89,0.3-5.87,0.9c-1.98,0.6-3.68,1.42-5.09,2.47
		l-5.63-11.66c2.45-1.51,5.41-2.7,8.88-3.56c3.47-0.86,6.92-1.29,10.37-1.29C519.46,141.56,525.2,143.24,529.16,146.6z
		 M516.25,137.64c-1.2-0.52-2.45-1.23-3.76-2.11c-0.89-0.57-1.6-1-2.15-1.29c-0.55-0.29-1.08-0.43-1.6-0.43
		c-0.99,0-1.8,0.34-2.43,1.02c-0.63,0.68-0.99,1.62-1.09,2.82h-8.37c0.1-4.17,1.11-7.47,3.01-9.9c1.9-2.43,4.5-3.64,7.79-3.64
		c1.51,0,2.87,0.26,4.07,0.78c1.2,0.52,2.45,1.23,3.76,2.11c0.89,0.63,1.6,1.07,2.15,1.33c0.55,0.26,1.08,0.39,1.6,0.39
		c0.99,0,1.8-0.33,2.43-0.98c0.63-0.65,0.99-1.53,1.09-2.62h8.37c-0.1,4.02-1.11,7.24-3.01,9.66c-1.9,2.43-4.5,3.64-7.79,3.64
		C518.81,138.43,517.45,138.17,516.25,137.64z M515.23,174.27c0.99-0.68,1.72-1.69,2.19-3.05v-2.97h-4.38c-3.6,0-5.4,1.2-5.4,3.6
		c0,0.99,0.38,1.81,1.13,2.46c0.76,0.65,1.79,0.98,3.09,0.98C513.12,175.28,514.24,174.94,515.23,174.27z"/>
	<path d="M553.38,183.07c-3.78-1.9-6.74-4.54-8.88-7.9c-2.14-3.37-3.21-7.19-3.21-11.46c0-4.28,1.07-8.1,3.21-11.46
		c2.14-3.36,5.1-5.99,8.88-7.86c3.78-1.88,8.05-2.82,12.79-2.82c4.8,0,9.09,0.94,12.87,2.82c3.78,1.88,6.73,4.5,8.84,7.86
		c2.11,3.36,3.17,7.19,3.17,11.46c0,4.28-1.06,8.1-3.17,11.46c-2.11,3.36-5.06,6-8.84,7.9c-3.78,1.9-8.07,2.86-12.87,2.86
		C561.43,185.92,557.16,184.97,553.38,183.07z M571.18,169.92c1.3-1.49,1.96-3.56,1.96-6.22c0-2.66-0.65-4.72-1.96-6.18
		c-1.3-1.46-2.97-2.19-5.01-2.19c-2.04,0-3.71,0.73-5.01,2.19c-1.3,1.46-1.96,3.52-1.96,6.18c0,2.66,0.65,4.73,1.96,6.22
		c1.3,1.49,2.97,2.23,5.01,2.23C568.21,172.15,569.88,171.41,571.18,169.92z"/>
	<path d="M597.2,183.07c-1.96-1.9-2.93-4.34-2.93-7.32c0-2.97,0.98-5.39,2.93-7.24s4.42-2.78,7.39-2.78s5.44,0.93,7.39,2.78
		c1.96,1.85,2.93,4.26,2.93,7.24c0,2.97-0.98,5.41-2.93,7.32c-1.96,1.9-4.42,2.86-7.39,2.86S599.16,184.97,597.2,183.07z"/>
</g>
</svg>
