<?xml version="1.0" encoding="utf-8"?>
<!-- Generator: Adobe Illustrator 25.2.1, SVG Export Plug-In . SVG Version: 6.00 Build 0)  -->
<svg version="1.1" id="Camada_1" xmlns="http://www.w3.org/2000/svg" xmlns:xlink="http://www.w3.org/1999/xlink" x="0px" y="0px"
	 viewBox="0 0 800 300" style="enable-background:new 0 0 800 300;" xml:space="preserve">
<style type="text/css">
	.st0{fill:#FFFFFF;}
</style>
<g>
	<g>
		<path class="st0" d="M115.97,24.87c-10.34-5.29-22.32-7.97-35.63-7.97H26.66V143.9h53.68c13.31,0,25.3-2.68,35.63-7.97
			c10.36-5.3,18.51-12.84,24.24-22.43c5.72-9.58,8.62-20.72,8.62-33.1s-2.9-23.52-8.62-33.1C134.48,37.72,126.33,30.18,115.97,24.87
			z M46.52,34.44h32.75c9.91,0,18.74,1.95,26.24,5.78c7.47,3.82,13.31,9.25,17.36,16.13c4.06,6.9,6.11,14.99,6.11,24.04
			c0,9.06-2.06,17.15-6.11,24.04c-4.05,6.88-9.89,12.31-17.36,16.13c-7.5,3.84-16.33,5.78-26.24,5.78H46.52V34.44z"/>
		<polygon class="st0" points="202.93,88.01 265.61,88.01 265.61,70.83 202.93,70.83 202.93,34.44 273.29,34.44 273.29,16.91 
			183.08,16.91 183.08,143.9 275.78,143.9 275.78,126.36 202.93,126.36 		"/>
		<path class="st0" d="M376.93,78.76c-5.73-2.27-13.41-4.57-22.82-6.83c-7.2-1.65-12.96-3.23-17.12-4.7
			c-4.07-1.43-7.53-3.46-10.27-6.04c-2.67-2.5-3.97-5.68-3.97-9.72c0-5.55,2.35-9.95,7.18-13.48c4.86-3.55,12.32-5.34,22.18-5.34
			c5.58,0,11.38,0.86,17.22,2.55c5.83,1.69,11.39,4.21,16.53,7.47l1.01,0.64l6.65-16.13l-0.66-0.46
			c-5.19-3.62-11.48-6.43-18.71-8.36c-7.2-1.92-14.62-2.89-22.04-2.89c-10.69,0-19.78,1.65-27.02,4.91
			c-7.29,3.28-12.81,7.73-16.41,13.22c-3.6,5.5-5.43,11.75-5.43,18.58c0,8.19,2.16,14.81,6.41,19.67c4.2,4.81,9.31,8.41,15.21,10.72
			c5.79,2.27,13.5,4.57,22.9,6.83c7.43,1.77,13.25,3.38,17.31,4.79c3.95,1.37,7.31,3.37,9.99,5.94c2.62,2.51,3.89,5.69,3.89,9.72
			c0,5.53-2.37,9.85-7.24,13.19c-4.92,3.38-12.54,5.09-22.65,5.09c-7.71,0-15.31-1.33-22.61-3.96c-7.29-2.62-13.33-6.07-17.97-10.25
			l-1-0.9l-7.5,15.8l0.54,0.5c5.08,4.72,12.15,8.61,20.99,11.55h0c8.81,2.94,18.07,4.43,27.55,4.43c10.68,0,19.83-1.62,27.18-4.81
			c7.41-3.22,13.02-7.67,16.69-13.22c3.66-5.56,5.52-11.78,5.52-18.5c0-8.07-2.16-14.6-6.41-19.41
			C387.85,84.64,382.77,81.07,376.93,78.76z"/>
		<rect x="431.45" y="16.91" class="st0" width="19.86" height="126.99"/>
		<path class="st0" d="M529.08,39.41c7.37-4.01,15.83-6.04,25.15-6.04c13.83,0,25.79,4.77,35.55,14.18l0.71,0.68l12.44-12.44
			l-0.64-0.71c-5.79-6.39-12.91-11.31-21.17-14.63c-8.24-3.31-17.52-4.98-27.6-4.98c-12.84,0-24.57,2.8-34.85,8.33
			c-10.29,5.54-18.47,13.35-24.31,23.23c-5.84,9.87-8.8,21.1-8.8,33.36c0,12.27,2.96,23.47,8.8,33.28
			c5.84,9.81,13.98,17.62,24.22,23.22c10.22,5.59,21.86,8.43,34.58,8.43c8.99,0,17.75-1.4,26.03-4.16
			c8.29-2.76,15.67-6.79,21.93-11.96l0.36-0.3V78.69h-19.14v41.16c-8.04,5.03-17.55,7.58-28.28,7.58c-9.19,0-17.59-2.06-24.96-6.13
			c-7.36-4.06-13.21-9.73-17.39-16.86c-4.17-7.13-6.29-15.22-6.29-24.05c0-8.94,2.12-17.09,6.29-24.23
			C515.87,49.05,521.72,43.41,529.08,39.41z"/>
		<polygon class="st0" points="732.14,16.91 732.14,108.28 658.93,17.28 658.63,16.91 642.51,16.91 642.51,143.9 662.36,143.9 
			662.36,52.53 735.58,143.53 735.88,143.9 752,143.9 752,16.91 		"/>
	</g>
	<g>
		<path class="st0" d="M497.92,198.45c7.08,5.96,10.62,14.15,10.62,24.58c0,10.43-3.54,18.6-10.62,24.51
			c-7.08,5.91-16.85,8.87-29.33,8.87h-26.26v30.87H432v-97.77h36.59C481.07,189.51,490.85,192.49,497.92,198.45z M490.52,240.98
			c5.12-4.24,7.68-10.22,7.68-17.95c0-7.91-2.56-13.99-7.68-18.23c-5.12-4.24-12.52-6.35-22.21-6.35h-25.98v48.88h25.98
			C478,247.33,485.4,245.21,490.52,240.98z"/>
		<path class="st0" d="M530.88,189.51h10.34v97.77h-10.34V189.51z"/>
		<path class="st0" d="M638.99,198.45c7.08,5.96,10.62,14.15,10.62,24.58c0,10.43-3.54,18.6-10.62,24.51
			c-7.08,5.91-16.85,8.87-29.33,8.87H583.4v30.87h-10.34v-97.77h36.59C622.13,189.51,631.91,192.49,638.99,198.45z M631.58,240.98
			c5.12-4.24,7.68-10.22,7.68-17.95c0-7.91-2.56-13.99-7.68-18.23c-5.12-4.24-12.52-6.35-22.21-6.35H583.4v48.88h25.98
			C619.06,247.33,626.46,245.21,631.58,240.98z"/>
		<path class="st0" d="M728.37,261.16H673.9l-11.73,26.12h-10.75l44.69-97.77h10.2L751,287.28H740.1L728.37,261.16z M724.6,252.78
			l-23.46-52.52l-23.46,52.52H724.6z"/>
	</g>
</g>
</svg>
