<?xml version="1.0" encoding="utf-8"?>
<!-- Generator: Adobe Illustrator 25.2.1, SVG Export Plug-In . SVG Version: 6.00 Build 0)  -->
<svg version="1.1" id="Camada_1" xmlns="http://www.w3.org/2000/svg" xmlns:xlink="http://www.w3.org/1999/xlink" x="0px" y="0px"
	 viewBox="0 0 251 249" style="enable-background:new 0 0 251 249;" xml:space="preserve">
<style type="text/css">
	.st0{fill:#FFFFFF;}
</style>
<circle cx="127.57" cy="125" r="118"/>
<g>
	<path class="st0" d="M79.44,149.08c0-16.01,0-32.02,0-48.02c0.47-3.05,1.18-6.04,2.65-8.79c4.82-9.05,12.34-14.26,22.61-14.47
		c14.67-0.3,29.36-0.08,44.04-0.07c2.48,0,4.89,0.48,7.24,1.25c10.92,3.54,18.21,13.86,18.13,25.2c-0.1,13.94-0.02,27.88-0.02,41.82
		c0,1.23-0.01,2.46-0.2,3.68c-1.45,9.2-6.31,15.92-14.6,20.15c-2.69,1.37-5.58,2.06-8.54,2.52c-16.01,0-32.02,0-48.02,0
		c-0.51-0.1-1.02-0.2-1.54-0.29c-8.61-1.6-14.92-6.32-19.02-14.03C80.68,155.24,79.92,152.2,79.44,149.08z M126.75,163.8
		c0,0.01,0,0.01,0,0.02c6.8,0,13.61,0,20.41,0c1.2,0,2.39-0.04,3.59-0.2c7.91-1.08,14.65-8.53,14.69-16.5
		c0.07-14.53,0.02-29.06,0.03-43.59c0-0.83-0.09-1.66-0.2-2.48c-1.07-7.91-8.53-14.65-16.49-14.69
		c-14.53-0.07-29.06-0.02-43.59-0.03c-0.83,0-1.66,0.09-2.48,0.2c-7.91,1.07-14.65,8.53-14.69,16.49
		c-0.07,14.53-0.02,29.06-0.03,43.59c0,0.83,0.09,1.66,0.2,2.48c1.07,7.91,8.53,14.62,16.49,14.7
		C112.04,163.86,119.39,163.8,126.75,163.8z"/>
	<path class="st0" d="M126.72,149.52c-13.49,0-24.43-10.95-24.44-24.44c0-13.53,10.96-24.48,24.51-24.46
		c13.48,0.02,24.4,10.99,24.39,24.49C151.17,138.59,140.21,149.53,126.72,149.52z M126.73,140.91c8.78,0,15.84-7.07,15.83-15.86
		c-0.01-8.74-7.06-15.79-15.79-15.81c-8.8-0.01-15.87,7.03-15.88,15.82C110.89,133.85,117.95,140.91,126.73,140.91z"/>
	<path class="st0" d="M152.11,105.95c-3.46-0.01-6.23-2.77-6.23-6.2c0-3.41,2.79-6.23,6.21-6.27c3.4-0.04,6.3,2.87,6.28,6.3
		C158.35,103.21,155.56,105.96,152.11,105.95z"/>
</g>
</svg>
