<?xml version="1.0" encoding="utf-8"?>
<!-- Generator: Adobe Illustrator 25.2.1, SVG Export Plug-In . SVG Version: 6.00 Build 0)  -->
<svg version="1.1" id="Camada_1" xmlns="http://www.w3.org/2000/svg" xmlns:xlink="http://www.w3.org/1999/xlink" x="0px" y="0px"
	 viewBox="0 0 251 249" style="enable-background:new 0 0 251 249;" xml:space="preserve">
<style type="text/css">
	.st0{fill:#FFFFFF;}
</style>
<circle cx="125" cy="123" r="118"/>
<g>
	<path class="st0" d="M124.27,163.41c-14.88,0-29.77,0.02-44.65-0.01c-8.72-0.01-13.77-4.93-13.81-13.7
		c-0.08-18.44-0.09-36.88,0.01-55.32c0.04-8.59,5.29-13.63,13.92-13.64c29.77-0.02,59.53-0.02,89.3,0
		c8.83,0.01,14.01,5.11,14.04,13.98c0.06,18.18,0.06,36.35,0,54.53c-0.03,9.33-4.92,14.14-14.16,14.15
		C154.03,163.42,139.15,163.41,124.27,163.41z M124.56,156.65c14.89,0,29.78,0.03,44.67-0.01c4.98-0.01,7.17-2.02,7.19-6.83
		c0.07-16.47,0.04-32.94,0.01-49.41c0-0.98,0.45-2.4-0.81-2.76c-0.65-0.19-1.68,0.55-2.41,1.06c-11.4,8.06-22.81,16.12-34.16,24.26
		c-9.84,7.06-16.18,7.09-26.39,0.5c-12.06-7.79-24.26-15.35-36.44-22.96c-3.62-2.26-3.79-2.14-3.79,2.12
		c-0.02,15.42-0.03,30.83,0.01,46.25c0.01,5.89,1.93,7.78,7.84,7.79C95.04,156.67,109.8,156.66,124.56,156.65z M126.83,121.22
		c2.19,0.26,4.44-1.04,6.63-2.6c12.55-8.93,25.14-17.81,37.66-26.77c1.07-0.76,3.3-1.13,2.72-2.82c-0.53-1.57-2.61-1.43-4.18-1.51
		c-0.39-0.02-0.79-0.01-1.18-0.01c-29.36,0-58.72-0.01-88.08,0.01c-1.18,0-2.4,0-3.52,0.3c-1.25,0.34-2.76,0.86-2.99,2.28
		c-0.24,1.44,1.39,1.74,2.33,2.34c14.03,8.85,28.08,17.66,42.12,26.48C120.74,120.42,123.37,121.12,126.83,121.22z"/>
</g>
</svg>
