<?xml version="1.0" encoding="utf-8"?>
<!-- Generator: Adobe Illustrator 25.2.1, SVG Export Plug-In . SVG Version: 6.00 Build 0)  -->
<svg version="1.1" id="Camada_1" xmlns="http://www.w3.org/2000/svg" xmlns:xlink="http://www.w3.org/1999/xlink" x="0px" y="0px"
	 viewBox="0 0 251 249" style="enable-background:new 0 0 251 249;" xml:space="preserve">
<style type="text/css">
	.st0{fill:#FFFFFF;}
</style>
<circle cx="125" cy="123" r="118"/>
<g>
	<path class="st0" d="M127.99,177.93c-8.62,0.04-16.54-1.78-24.06-5.36c-0.51-0.24-1-0.36-1.58-0.22c-4.06,0.98-8.12,1.94-12.18,2.9
		c-4.71,1.12-9.43,2.24-14.14,3.35c-0.85,0.2-1.7,0.43-2.7-0.22c-0.24-0.16-0.45-0.38-0.57-0.64c-0.51-1.04-0.17-1.92,0.01-2.84
		c1.79-8.74,3.58-17.49,5.38-26.23c0.13-0.65,0.09-1.23-0.21-1.85c-2.32-4.77-3.9-9.77-4.82-15c-1.5-8.6-0.91-17.07,1.62-25.39
		c2.38-7.83,6.35-14.8,11.85-20.89c6.62-7.33,14.61-12.56,23.97-15.67c6.64-2.2,13.49-3.05,20.46-2.62
		c10.85,0.67,20.71,4.23,29.49,10.68c7.17,5.27,12.75,11.92,16.76,19.86c3.07,6.09,4.89,12.56,5.56,19.36
		c0.76,7.65-0.11,15.41-2.53,22.7c-3.04,9.13-8.05,16.89-14.91,23.23c-7.4,6.84-16.03,11.41-25.92,13.56
		C135.6,177.53,131.68,177.93,127.99,177.93z M127.64,165.82c2.75-0.08,5.92-0.23,9.02-0.92c4.69-1.05,9.15-2.72,13.29-5.22
		c4.44-2.68,8.25-6.04,11.5-10.05c3.05-3.77,5.34-7.98,7-12.55c1.26-3.49,2.07-7.1,2.37-10.77c0.29-3.51,0.16-7.03-0.4-10.55
		c-1.22-7.66-4.27-14.48-9.13-20.45c-4.01-4.92-8.89-8.8-14.63-11.59c-7.38-3.59-15.15-4.91-23.26-4.13
		c-7.49,0.72-14.44,3.36-20.75,7.84c-4.36,3.1-8.13,7-11.05,11.48c-5.01,7.68-7.25,16.04-7.04,25.09c0.18,7.5,2.41,14.36,5.99,20.85
		c0.4,0.72,0.53,1.55,0.36,2.35c-1.08,5.06-2.11,10.14-3.18,15.21c-0.15,0.71-0.1,0.99,0.76,0.78c4.14-1,8.34-1.81,12.44-2.98
		c2.47-0.71,4.53-0.57,6.83,0.69C113.79,164.19,120.34,165.73,127.64,165.82z"/>
	<path class="st0" d="M142.52,149.56c-4.98-0.03-9.36-1.32-13.53-3.39c-7.09-3.51-13.02-8.55-18.39-14.26
		c-3.65-3.88-6.8-8.13-8.85-13.11c-1.19-2.87-1.89-5.85-1.98-8.96c-0.11-3.73,1.3-6.87,3.7-9.66c1-1.16,2.13-2.16,3.24-3.19
		c2.08-1.95,4.96-1.54,6.3,0.98c1.2,2.26,2.14,4.66,3.18,7c0.52,1.17,1.04,2.34,1.52,3.52c0.53,1.29,0.5,2.57-0.31,3.75
		c-0.66,0.95-1.35,1.88-2.07,2.79c-1.42,1.8-1.54,3.49-0.27,5.36c2.05,3.01,4.62,5.55,7.33,7.98c2.08,1.87,4.24,3.67,6.55,5.27
		c1.21,0.84,2.45,1.6,3.78,2.21c1.59,0.73,3.46,0.33,4.71-0.88c0.72-0.69,1.43-1.4,2.12-2.13c1.23-1.32,3.1-1.81,4.83-1.3
		c3.34,0.99,6.69,1.93,10.03,2.92c3.02,0.89,4.03,3.75,2.3,6.39c-1.43,2.17-3.02,4.2-5.05,5.86
		C148.91,148.97,145.65,149.51,142.52,149.56z"/>
</g>
</svg>
