<?xml version="1.0" encoding="utf-8"?>
<!-- Generator: Adobe Illustrator 25.2.1, SVG Export Plug-In . SVG Version: 6.00 Build 0)  -->
<svg version="1.1" id="Camada_1" xmlns="http://www.w3.org/2000/svg" xmlns:xlink="http://www.w3.org/1999/xlink" x="0px" y="0px"
	 viewBox="0 0 212 433" style="enable-background:new 0 0 212 433;" xml:space="preserve">
<g>
	<path d="M229.39,47.58c-35.31,5.62-73.83-4.01-104.33,19.26c-32.9,24.88-21.67,72.23-24.88,107.54
		C96.98,216.91,65.68,245,51.24,283.52c-16.85,40.13,20.87,77.04,58.58,89.88c23.27,8.03,46.55,12.84,69.82,9.63
		c12.04-1.61,29.69-8.83,39.32-13.64l4.01,37.72c-17.66,11.24-49.76,18.46-70.62,20.87c-25.68,2.41-58.58-12.04-79.45-27.29
		c-41.73-30.5-69.02-77.04-58.58-130.81c7.22-37.72,37.72-65,40.13-104.33c2.41-38.52,6.42-108.34,43.34-129.21
		c29.69-16.85,94.7-37.72,126.8-20.87L229.39,47.58z"/>
</g>
<g>
	<path d="M230.2,70.05c-27.29,0-70.62-0.8-89.88,24.88c-24.08,34.51-8.03,69.02-9.63,105.13c-2.41,41.73-53.77,61.79-45.74,105.93
		c8.83,48.95,66.61,51.36,105.93,46.55c9.63-0.8,20.06-2.41,28.09-5.62l3.21-39.32c-20.87,6.42-45.74,11.24-68.21,8.83
		c-14.45-1.61-32.1-6.42-35.31-22.47c-4.01-16.05,12.04-26.48,24.08-36.11c16.85-13.64,36.92-23.27,38.52-47.35
		c1.61-20.06-5.62-36.92-10.43-56.18c-4.82-16.85,4.01-39.32,20.06-47.35c12.04-7.22,28.89-3.21,40.13-7.22L230.2,70.05z"/>
</g>
</svg>
